<svg width="98" height="400" viewBox="0 0 98 400" fill="none" xmlns="http://www.w3.org/2000/svg">
<path d="M24 48C37.2548 48 48 37.2548 48 24C48 10.7452 37.2548 0 24 0C10.7452 0 0 10.7452 0 24C0 37.2548 10.7452 48 24 48Z" fill="#09D255"/>
<g clip-path="url(#clip0)">
<path d="M24.0017 10.1734C19.4756 8.90632 15 12.3277 15 16.9999C15 21.681 19.4838 25.0911 24.0017 23.8263C28.5341 25.0962 33 21.6626 33 16.9999C33 12.3319 28.5285 8.90508 24.0017 10.1734ZM16.0588 16.9999C16.0588 13.6426 18.8167 10.9172 22.1877 10.9715C20.1703 12.2223 18.8237 14.4566 18.8237 16.9999C18.8237 19.5431 20.1703 21.7774 22.1877 23.0282C18.8168 23.0825 16.0588 20.3571 16.0588 16.9999ZM25.9118 23.0292C22.5872 23.0292 19.8825 20.3244 19.8825 16.9999C19.8825 13.6753 22.5872 10.9705 25.9118 10.9705C29.2364 10.9705 31.9412 13.6753 31.9412 16.9999C31.9412 20.3244 29.2364 23.0292 25.9118 23.0292Z" fill="white"/>
<path d="M26.8568 16.3969H25.1432C24.628 16.3969 24.2088 15.9786 24.2088 15.4645C24.2088 14.9486 24.6272 14.532 25.143 14.532C25.1468 14.532 25.1507 14.532 25.1546 14.532H26.7965C27.1422 14.5352 27.4829 14.6887 27.7315 14.9534C27.9598 15.1965 28.3424 15.2089 28.5859 14.9811C28.8294 14.7533 28.8418 14.3716 28.6136 14.1285C28.0418 13.5198 27.3841 13.3258 26.6045 13.3258V12.6031C26.6045 12.27 26.3338 12 26 12C25.6662 12 25.3956 12.27 25.3956 12.6031V13.3258C23.7909 13.3258 23 14.3675 23 15.4645C23 16.6437 23.9615 17.6031 25.1433 17.6031H26.8568C27.3721 17.6031 27.7912 18.0214 27.7912 18.5355C27.7912 19.0514 27.3728 19.468 26.857 19.468C26.8532 19.468 26.8493 19.468 26.8454 19.468H25.054C24.8051 19.4656 24.5534 19.3812 24.326 19.2238C24.0517 19.0339 23.6751 19.1019 23.4848 19.3755C23.2946 19.6492 23.3626 20.0249 23.6369 20.2148C24.3759 20.7265 25.0069 20.6742 25.3955 20.6742V21.3969C25.3955 21.73 25.6662 22 26 22C26.3338 22 26.6044 21.73 26.6044 21.3969V20.6742C28.2282 20.6742 29 19.6126 29 18.5355C29 17.3563 28.0386 16.3969 26.8568 16.3969Z" fill="white"/>
</g>
<path d="M12.848 30.733C13.244 30.418 13.442 29.995 13.442 29.473C13.442 28.96 13.253 28.537 12.884 28.204C12.515 27.871 12.065 27.7 11.525 27.7H9.04102V34H11.714C12.263 34 12.731 33.829 13.109 33.487C13.487 33.145 13.676 32.704 13.676 32.173C13.676 31.534 13.397 31.048 12.848 30.733ZM11.525 28.861C11.921 28.861 12.2 29.158 12.2 29.554C12.2 29.95 11.912 30.247 11.525 30.247H10.283V28.861H11.525ZM10.283 32.839V31.354H11.714C12.137 31.354 12.443 31.669 12.443 32.092C12.443 32.524 12.137 32.839 11.714 32.839H10.283ZM16.8572 27.7L16.1372 28.933H17.2532L18.2522 27.7H16.8572ZM17.6762 30.031C17.3252 29.59 16.8392 29.374 16.2092 29.374C15.6062 29.374 15.0932 29.608 14.6612 30.067C14.2382 30.526 14.0222 31.084 14.0222 31.75C14.0222 32.416 14.2382 32.983 14.6612 33.442C15.0932 33.901 15.6062 34.126 16.2092 34.126C16.8392 34.126 17.3252 33.91 17.6762 33.469V34H18.8372V29.5H17.6762V30.031ZM15.5342 32.668C15.3002 32.425 15.1832 32.119 15.1832 31.75C15.1832 31.381 15.3002 31.075 15.5342 30.841C15.7682 30.598 16.0652 30.481 16.4252 30.481C16.7852 30.481 17.0822 30.598 17.3162 30.841C17.5592 31.075 17.6762 31.381 17.6762 31.75C17.6762 32.119 17.5592 32.425 17.3162 32.668C17.0822 32.902 16.7852 33.019 16.4252 33.019C16.0652 33.019 15.7682 32.902 15.5342 32.668ZM23.544 33.442C24.003 32.983 24.237 32.416 24.237 31.75C24.237 31.084 24.003 30.526 23.544 30.067C23.085 29.608 22.518 29.374 21.852 29.374C21.186 29.374 20.619 29.608 20.16 30.067C19.701 30.526 19.476 31.084 19.476 31.75C19.476 32.416 19.701 32.983 20.16 33.442C20.619 33.901 21.186 34.126 21.852 34.126C22.518 34.126 23.085 33.901 23.544 33.442ZM20.979 32.641C20.754 32.407 20.637 32.11 20.637 31.75C20.637 31.39 20.754 31.093 20.979 30.859C21.213 30.625 21.501 30.508 21.852 30.508C22.203 30.508 22.491 30.625 22.725 30.859C22.959 31.093 23.076 31.39 23.076 31.75C23.076 32.11 22.959 32.407 22.725 32.641C22.491 32.875 22.203 32.992 21.852 32.992C21.501 32.992 21.213 32.875 20.979 32.641ZM30.3908 30.058C30.0488 29.599 29.5718 29.374 28.9508 29.374C28.3208 29.374 27.7898 29.599 27.3578 30.049C26.9258 30.499 26.7098 31.039 26.7098 31.678C26.7098 32.317 26.9258 32.866 27.3488 33.316C27.7808 33.757 28.3118 33.982 28.9508 33.982C29.5718 33.982 30.0488 33.757 30.3908 33.298V33.784C30.3908 34.495 29.9408 34.891 29.2118 34.891C28.6538 34.891 28.2578 34.684 28.0328 34.261L27.0428 34.828C27.4388 35.548 28.2038 35.926 29.1758 35.926C29.8238 35.926 30.3728 35.746 30.8318 35.377C31.2908 35.008 31.5248 34.477 31.5248 33.784V29.5H30.3908V30.058ZM30.3908 31.678C30.3908 32.398 29.8598 32.911 29.1308 32.911C28.4018 32.911 27.8708 32.398 27.8708 31.678C27.8708 31.327 27.9878 31.03 28.2218 30.805C28.4648 30.571 28.7618 30.454 29.1308 30.454C29.4998 30.454 29.7968 30.571 30.0308 30.805C30.2738 31.03 30.3908 31.327 30.3908 31.678ZM32.9736 29.104C33.3696 29.104 33.6936 28.789 33.6936 28.411C33.6936 28.033 33.3696 27.709 32.9736 27.709C32.5866 27.709 32.2626 28.033 32.2626 28.411C32.2626 28.789 32.5866 29.104 32.9736 29.104ZM33.5586 34V29.5H32.3976V34H33.5586ZM37.0422 27.7L36.3222 28.933H37.4382L38.4372 27.7H37.0422ZM37.8612 30.031C37.5102 29.59 37.0242 29.374 36.3942 29.374C35.7912 29.374 35.2782 29.608 34.8462 30.067C34.4232 30.526 34.2072 31.084 34.2072 31.75C34.2072 32.416 34.4232 32.983 34.8462 33.442C35.2782 33.901 35.7912 34.126 36.3942 34.126C37.0242 34.126 37.5102 33.91 37.8612 33.469V34H39.0222V29.5H37.8612V30.031ZM35.7192 32.668C35.4852 32.425 35.3682 32.119 35.3682 31.75C35.3682 31.381 35.4852 31.075 35.7192 30.841C35.9532 30.598 36.2502 30.481 36.6102 30.481C36.9702 30.481 37.2672 30.598 37.5012 30.841C37.7442 31.075 37.8612 31.381 37.8612 31.75C37.8612 32.119 37.7442 32.425 37.5012 32.668C37.2672 32.902 36.9702 33.019 36.6102 33.019C36.2502 33.019 35.9532 32.902 35.7192 32.668Z" fill="white"/>
<path d="M74 48C87.2548 48 98 37.2548 98 24C98 10.7452 87.2548 0 74 0C60.7452 0 50 10.7452 50 24C50 37.2548 60.7452 48 74 48Z" fill="#CCCCCC"/>
<g clip-path="url(#clip1)">
<path d="M74.0017 10.1734C69.4756 8.90632 65 12.3277 65 16.9999C65 21.681 69.4838 25.0911 74.0017 23.8263C78.5341 25.0962 83 21.6626 83 16.9999C83 12.3319 78.5285 8.90508 74.0017 10.1734ZM66.0588 16.9999C66.0588 13.6426 68.8167 10.9172 72.1877 10.9715C70.1703 12.2223 68.8237 14.4566 68.8237 16.9999C68.8237 19.5431 70.1703 21.7774 72.1877 23.0282C68.8168 23.0825 66.0588 20.3571 66.0588 16.9999ZM75.9118 23.0292C72.5872 23.0292 69.8825 20.3244 69.8825 16.9999C69.8825 13.6753 72.5872 10.9705 75.9118 10.9705C79.2364 10.9705 81.9412 13.6753 81.9412 16.9999C81.9412 20.3244 79.2364 23.0292 75.9118 23.0292Z" fill="white"/>
<path d="M76.8568 16.3969H75.1432C74.628 16.3969 74.2088 15.9786 74.2088 15.4645C74.2088 14.9486 74.6272 14.532 75.143 14.532C75.1468 14.532 75.1507 14.532 75.1546 14.532H76.7965C77.1422 14.5352 77.4829 14.6887 77.7315 14.9534C77.9598 15.1965 78.3424 15.2089 78.5859 14.9811C78.8294 14.7533 78.8418 14.3716 78.6136 14.1285C78.0418 13.5198 77.3841 13.3258 76.6045 13.3258V12.6031C76.6045 12.27 76.3338 12 76 12C75.6662 12 75.3956 12.27 75.3956 12.6031V13.3258C73.7909 13.3258 73 14.3675 73 15.4645C73 16.6437 73.9615 17.6031 75.1433 17.6031H76.8568C77.3721 17.6031 77.7912 18.0214 77.7912 18.5355C77.7912 19.0514 77.3728 19.468 76.857 19.468C76.8532 19.468 76.8493 19.468 76.8454 19.468H75.054C74.8051 19.4656 74.5534 19.3812 74.326 19.2238C74.0517 19.0339 73.6751 19.1019 73.4848 19.3755C73.2946 19.6492 73.3626 20.0249 73.6369 20.2148C74.3759 20.7265 75.0069 20.6742 75.3955 20.6742V21.3969C75.3955 21.73 75.6662 22 76 22C76.3338 22 76.6044 21.73 76.6044 21.3969V20.6742C78.2282 20.6742 79 19.6126 79 18.5355C79 17.3563 78.0386 16.3969 76.8568 16.3969Z" fill="white"/>
</g>
<path d="M62.848 30.733C63.244 30.418 63.442 29.995 63.442 29.473C63.442 28.96 63.253 28.537 62.884 28.204C62.515 27.871 62.065 27.7 61.525 27.7H59.041V34H61.714C62.263 34 62.731 33.829 63.109 33.487C63.487 33.145 63.676 32.704 63.676 32.173C63.676 31.534 63.397 31.048 62.848 30.733ZM61.525 28.861C61.921 28.861 62.2 29.158 62.2 29.554C62.2 29.95 61.912 30.247 61.525 30.247H60.283V28.861H61.525ZM60.283 32.839V31.354H61.714C62.137 31.354 62.443 31.669 62.443 32.092C62.443 32.524 62.137 32.839 61.714 32.839H60.283ZM66.8572 27.7L66.1372 28.933H67.2532L68.2522 27.7H66.8572ZM67.6762 30.031C67.3252 29.59 66.8392 29.374 66.2092 29.374C65.6062 29.374 65.0932 29.608 64.6612 30.067C64.2382 30.526 64.0222 31.084 64.0222 31.75C64.0222 32.416 64.2382 32.983 64.6612 33.442C65.0932 33.901 65.6062 34.126 66.2092 34.126C66.8392 34.126 67.3252 33.91 67.6762 33.469V34H68.8372V29.5H67.6762V30.031ZM65.5342 32.668C65.3002 32.425 65.1832 32.119 65.1832 31.75C65.1832 31.381 65.3002 31.075 65.5342 30.841C65.7682 30.598 66.0652 30.481 66.4252 30.481C66.7852 30.481 67.0822 30.598 67.3162 30.841C67.5592 31.075 67.6762 31.381 67.6762 31.75C67.6762 32.119 67.5592 32.425 67.3162 32.668C67.0822 32.902 66.7852 33.019 66.4252 33.019C66.0652 33.019 65.7682 32.902 65.5342 32.668ZM73.544 33.442C74.003 32.983 74.237 32.416 74.237 31.75C74.237 31.084 74.003 30.526 73.544 30.067C73.085 29.608 72.518 29.374 71.852 29.374C71.186 29.374 70.619 29.608 70.16 30.067C69.701 30.526 69.476 31.084 69.476 31.75C69.476 32.416 69.701 32.983 70.16 33.442C70.619 33.901 71.186 34.126 71.852 34.126C72.518 34.126 73.085 33.901 73.544 33.442ZM70.979 32.641C70.754 32.407 70.637 32.11 70.637 31.75C70.637 31.39 70.754 31.093 70.979 30.859C71.213 30.625 71.501 30.508 71.852 30.508C72.203 30.508 72.491 30.625 72.725 30.859C72.959 31.093 73.076 31.39 73.076 31.75C73.076 32.11 72.959 32.407 72.725 32.641C72.491 32.875 72.203 32.992 71.852 32.992C71.501 32.992 71.213 32.875 70.979 32.641ZM80.3908 30.058C80.0488 29.599 79.5718 29.374 78.9508 29.374C78.3208 29.374 77.7898 29.599 77.3578 30.049C76.9258 30.499 76.7098 31.039 76.7098 31.678C76.7098 32.317 76.9258 32.866 77.3488 33.316C77.7808 33.757 78.3118 33.982 78.9508 33.982C79.5718 33.982 80.0488 33.757 80.3908 33.298V33.784C80.3908 34.495 79.9408 34.891 79.2118 34.891C78.6538 34.891 78.2578 34.684 78.0328 34.261L77.0428 34.828C77.4388 35.548 78.2038 35.926 79.1758 35.926C79.8238 35.926 80.3728 35.746 80.8318 35.377C81.2908 35.008 81.5248 34.477 81.5248 33.784V29.5H80.3908V30.058ZM80.3908 31.678C80.3908 32.398 79.8598 32.911 79.1308 32.911C78.4018 32.911 77.8708 32.398 77.8708 31.678C77.8708 31.327 77.9878 31.03 78.2218 30.805C78.4648 30.571 78.7618 30.454 79.1308 30.454C79.4998 30.454 79.7968 30.571 80.0308 30.805C80.2738 31.03 80.3908 31.327 80.3908 31.678ZM82.9736 29.104C83.3696 29.104 83.6936 28.789 83.6936 28.411C83.6936 28.033 83.3696 27.709 82.9736 27.709C82.5866 27.709 82.2626 28.033 82.2626 28.411C82.2626 28.789 82.5866 29.104 82.9736 29.104ZM83.5586 34V29.5H82.3976V34H83.5586ZM87.0422 27.7L86.3222 28.933H87.4382L88.4372 27.7H87.0422ZM87.8612 30.031C87.5102 29.59 87.0242 29.374 86.3942 29.374C85.7912 29.374 85.2782 29.608 84.8462 30.067C84.4232 30.526 84.2072 31.084 84.2072 31.75C84.2072 32.416 84.4232 32.983 84.8462 33.442C85.2782 33.901 85.7912 34.126 86.3942 34.126C87.0242 34.126 87.5102 33.91 87.8612 33.469V34H89.0222V29.5H87.8612V30.031ZM85.7192 32.668C85.4852 32.425 85.3682 32.119 85.3682 31.75C85.3682 31.381 85.4852 31.075 85.7192 30.841C85.9532 30.598 86.2502 30.481 86.6102 30.481C86.9702 30.481 87.2672 30.598 87.5012 30.841C87.7442 31.075 87.8612 31.381 87.8612 31.75C87.8612 32.119 87.7442 32.425 87.5012 32.668C87.2672 32.902 86.9702 33.019 86.6102 33.019C86.2502 33.019 85.9532 32.902 85.7192 32.668Z" fill="white"/>
<path d="M24 98C37.2548 98 48 87.2548 48 74C48 60.7452 37.2548 50 24 50C10.7452 50 0 60.7452 0 74C0 87.2548 10.7452 98 24 98Z" fill="#FF6B11"/>
<path fill-rule="evenodd" clip-rule="evenodd" d="M13.6489 62.1338C13.8109 62.1889 14.0607 62.3175 14.2042 62.4094C15.0831 62.9883 17.5307 66.0984 18.3312 67.6512C18.7892 68.5378 18.9418 69.1948 18.7985 69.6817C18.6504 70.2055 18.4051 70.4812 17.3087 71.3586C16.8691 71.7122 16.4573 72.0753 16.3925 72.1718C16.226 72.4107 16.0918 72.8792 16.0918 73.21C16.0965 73.9772 16.5962 75.3693 17.2531 76.4396C17.762 77.2711 18.6735 78.337 19.5758 79.1547C20.6352 80.1195 21.5698 80.7764 22.6247 81.2956C23.9803 81.9662 24.8085 82.1363 25.4147 81.856C25.5674 81.7871 25.7292 81.6953 25.7801 81.6539C25.8263 81.6126 26.1827 81.1807 26.5714 80.703C27.3208 79.7657 27.492 79.6142 28.0056 79.4396C28.6579 79.219 29.3243 79.2788 29.995 79.6187C30.5041 79.8807 31.6144 80.5651 32.3315 81.0612C33.2754 81.7183 35.2926 83.3538 35.5657 83.6799C36.0468 84.268 36.1301 85.0213 35.8062 85.8529C35.4637 86.7302 34.1313 88.375 33.2014 89.0779C32.3592 89.7119 31.7625 89.9553 30.9759 89.9921C30.3283 90.0243 30.0599 89.9691 29.2316 89.6292C22.7358 86.9692 17.5493 83 13.4315 77.5468C11.28 74.6986 9.64215 71.7445 8.52245 68.6803C7.87013 66.8932 7.83777 66.1168 8.3744 65.2026C8.60578 64.8167 9.59126 63.8611 10.3084 63.3283C11.5022 62.4462 12.0527 62.12 12.4922 62.0281C12.7929 61.9638 13.3157 62.0143 13.6489 62.1338Z" fill="white"/>
<path d="M29.9727 62C26.1279 62 23 64.7598 23 68.1523C23 69.5855 23.5672 70.9742 24.5994 72.0749C24.8036 72.9172 24.5557 73.8096 23.9405 74.4248C23.6832 74.6821 23.8651 75.125 24.2305 75.125C25.3993 75.125 26.526 74.6672 27.3631 73.8597C28.1914 74.1553 29.0678 74.3047 29.9727 74.3047C33.8175 74.3047 37 71.5449 37 68.1523C37 64.7598 33.8175 62 29.9727 62ZM26.7461 69.3828C26.0676 69.3828 25.5156 68.8309 25.5156 68.1523C25.5156 67.4738 26.0676 66.9219 26.7461 66.9219C27.4246 66.9219 27.9766 67.4738 27.9766 68.1523C27.9766 68.8309 27.4246 69.3828 26.7461 69.3828ZM30.0273 69.3828C29.3488 69.3828 28.7969 68.8309 28.7969 68.1523C28.7969 67.4738 29.3488 66.9219 30.0273 66.9219C30.7059 66.9219 31.2578 67.4738 31.2578 68.1523C31.2578 68.8309 30.7059 69.3828 30.0273 69.3828ZM33.3086 69.3828C32.6301 69.3828 32.0781 68.8309 32.0781 68.1523C32.0781 67.4738 32.6301 66.9219 33.3086 66.9219C33.9871 66.9219 34.5391 67.4738 34.5391 68.1523C34.5391 68.8309 33.9871 69.3828 33.3086 69.3828Z" fill="white"/>
<path d="M74 98C87.2548 98 98 87.2548 98 74C98 60.7452 87.2548 50 74 50C60.7452 50 50 60.7452 50 74C50 87.2548 60.7452 98 74 98Z" fill="#CCCCCC"/>
<path fill-rule="evenodd" clip-rule="evenodd" d="M66.1913 61.0343C66.3427 61.0858 66.5763 61.2061 66.7105 61.292C67.5323 61.8333 69.821 64.7414 70.5695 66.1934C70.9978 67.0225 71.1405 67.6368 71.0065 68.0921C70.8679 68.5818 70.6386 68.8397 69.6134 69.6601C69.2023 69.9908 68.8173 70.3302 68.7567 70.4205C68.601 70.6438 68.4755 71.082 68.4755 71.3913C68.4799 72.1086 68.9471 73.4103 69.5614 74.4111C70.0373 75.1886 70.8895 76.1853 71.7333 76.9499C72.7239 77.8521 73.5978 78.4664 74.5842 78.9518C75.8518 79.5789 76.6262 79.7379 77.193 79.4758C77.3358 79.4114 77.4871 79.3255 77.5347 79.2869C77.5779 79.2482 77.9111 78.8444 78.2746 78.3977C78.9754 77.5213 79.1354 77.3796 79.6157 77.2164C80.2257 77.0101 80.8487 77.0659 81.4759 77.3838C81.9519 77.6287 82.9902 78.2687 83.6607 78.7326C84.5433 79.347 86.4295 80.8764 86.6849 81.1813C87.1347 81.7311 87.2126 82.4355 86.9098 83.2131C86.5895 84.0335 85.3437 85.5715 84.4741 86.2287C83.6866 86.8215 83.1286 87.0491 82.3931 87.0835C81.7875 87.1137 81.5366 87.0621 80.7621 86.7442C74.6881 84.257 69.8383 80.5456 65.9879 75.4465C63.9762 72.7832 62.4447 70.0209 61.3977 67.1557C60.7877 65.4846 60.7575 64.7586 61.2593 63.9038C61.4756 63.543 62.3971 62.6495 63.0677 62.1512C64.1839 61.3264 64.6987 61.0214 65.1097 60.9355C65.3909 60.8753 65.8797 60.9226 66.1913 61.0343Z" fill="white"/>
<path d="M24 148C37.2548 148 48 137.255 48 124C48 110.745 37.2548 100 24 100C10.7452 100 0 110.745 0 124C0 137.255 10.7452 148 24 148Z" fill="#0068FF"/>
<path opacity="0.24" fill-rule="evenodd" clip-rule="evenodd" d="M33.2401 112.055H14.7274C12.7994 112.055 11.2365 113.617 11.2365 115.545V132.858C11.2365 134.786 12.7994 136.349 14.7274 136.349H33.2401C35.1681 136.349 36.731 134.786 36.731 132.858V115.545C36.731 113.617 35.1681 112.055 33.2401 112.055ZM14.7274 111.727C12.6186 111.727 10.9092 113.437 10.9092 115.545V132.858C10.9092 134.967 12.6186 136.676 14.7274 136.676H33.2401C35.3489 136.676 37.0582 134.967 37.0582 132.858V115.545C37.0582 113.437 35.3488 111.727 33.2401 111.727H14.7274Z" fill="white"/>
<path fill-rule="evenodd" clip-rule="evenodd" d="M17.3414 136.663H17.3421C17.8434 136.658 18.3445 136.653 18.845 136.653L18.8439 136.645L18.8425 136.637C18.8434 136.642 18.8443 136.647 18.845 136.652C18.9593 136.652 19.0734 136.658 19.1875 136.669H27.437C28.1222 136.669 28.8073 136.671 29.4923 136.672C30.8625 136.675 32.2326 136.677 33.6027 136.669H33.6313C35.5381 136.652 37.0681 135.1 37.0567 133.193V129.853C37.0567 129.841 37.0573 129.827 37.0579 129.811C37.0585 129.801 37.0591 129.791 37.0597 129.78C37.0645 129.696 37.0699 129.6 37.0338 129.602C36.9311 129.608 36.769 129.644 36.7119 129.701C36.2741 129.993 35.8495 130.312 35.425 130.631C34.5758 131.268 33.7267 131.906 32.7714 132.328C29.0538 133.583 25.7659 133.642 22.2762 132.799C22.0851 132.729 21.9942 132.737 21.8329 132.751C21.7289 132.76 21.5955 132.771 21.3875 132.766L21.3085 132.769C20.9642 132.78 20.4643 132.795 19.867 133.159C18.4682 133.587 16.5713 133.642 15.591 133.495C15.5951 133.505 15.5977 133.513 15.5998 133.52L15.5909 133.501C15.5773 133.486 15.5601 133.472 15.5434 133.459C15.4903 133.417 15.4426 133.38 15.5338 133.301C15.5605 133.284 15.5871 133.267 15.6138 133.249C15.667 133.213 15.7203 133.178 15.7737 133.147C16.5215 132.662 17.2237 132.131 17.6861 131.349C18.3147 130.587 18.0234 130.29 17.4679 129.723L17.4469 129.702C14.7406 126.94 13.9442 124.01 14.2265 120.068C14.5633 117.904 15.5566 116.043 16.9897 114.422C17.8574 113.44 18.8907 112.646 20.0211 111.984C20.0374 111.974 20.0565 111.965 20.0758 111.957C20.1311 111.932 20.1897 111.906 20.1981 111.83C20.2047 111.77 20.1082 111.75 20.0739 111.75C19.4298 111.75 18.7938 111.744 18.1609 111.739C16.9035 111.727 15.6579 111.716 14.3821 111.75C12.5495 111.802 10.8793 113.064 10.9096 115.313C10.9172 119.286 10.9147 123.257 10.9121 127.228C10.9109 129.212 10.9096 131.197 10.9096 133.182C10.9096 135.026 12.3197 136.573 14.1637 136.647C15.2214 136.686 16.2818 136.674 17.3413 136.663H17.3414ZM15.6634 133.626L15.6766 133.644C15.7722 133.729 15.8673 133.815 15.9617 133.901C15.8701 133.813 15.7754 133.726 15.6766 133.638L15.6634 133.626ZM18.5858 136.368C18.5541 136.347 18.5234 136.325 18.4969 136.298L18.4893 136.297L18.4967 136.304C18.5234 136.329 18.5541 136.349 18.5858 136.368ZM19.7357 123.877C20.0271 123.877 20.3127 123.876 20.5943 123.875C21.1453 123.874 21.6806 123.873 22.2134 123.877C22.6643 123.882 22.9098 124.071 22.9555 124.43C23.0069 124.881 22.7443 125.184 22.2533 125.19C21.5599 125.198 20.8698 125.197 20.1779 125.196H20.1777C19.9469 125.196 19.7158 125.195 19.4845 125.195C19.4077 125.195 19.3313 125.196 19.255 125.197C19.0653 125.199 18.8767 125.202 18.6853 125.19C18.3541 125.172 18.0287 125.104 17.8689 124.761C17.709 124.419 17.8231 124.111 18.0401 123.831C18.9193 122.712 19.8042 121.587 20.6891 120.468C20.7405 120.4 20.7918 120.331 20.8433 120.268C20.8011 120.197 20.7467 120.203 20.6935 120.209C20.6746 120.211 20.6557 120.213 20.6377 120.211C20.3295 120.209 20.0198 120.209 19.7102 120.209H19.7099C19.4003 120.209 19.0906 120.209 18.7823 120.206C18.6395 120.206 18.4969 120.189 18.3598 120.16C18.0345 120.086 17.8346 119.76 17.9089 119.441C17.9602 119.224 18.1314 119.047 18.3485 118.995C18.4854 118.961 18.6282 118.944 18.7709 118.944C19.787 118.938 20.809 118.938 21.8251 118.944C22.0078 118.938 22.1849 118.961 22.3618 119.007C22.7501 119.138 22.9155 119.498 22.7614 119.875C22.6245 120.2 22.4074 120.48 22.1905 120.759C21.4426 121.713 20.6947 122.661 19.9469 123.603C19.8841 123.677 19.827 123.751 19.7357 123.877ZM26.3581 120.873C26.4951 120.696 26.6378 120.531 26.8719 120.485C27.3229 120.394 27.7454 120.685 27.7511 121.142C27.7682 122.283 27.7625 123.425 27.7511 124.567C27.7511 124.864 27.557 125.126 27.2773 125.212C26.9918 125.321 26.6663 125.235 26.4779 124.989C26.381 124.87 26.341 124.847 26.2039 124.955C25.6845 125.378 25.0965 125.452 24.4627 125.246C23.4465 124.915 23.0298 124.122 22.9155 123.157C22.7957 122.112 23.1439 121.221 24.0802 120.673C24.8566 120.211 25.6445 120.251 26.3581 120.873ZM25.3933 121.701C25.4793 121.705 25.5634 121.721 25.6434 121.748C25.8155 121.803 25.9685 121.913 26.0783 122.066C26.3981 122.5 26.3981 123.214 26.0783 123.648C26.0213 123.722 25.9585 123.785 25.8899 123.836C25.7149 123.966 25.5095 124.026 25.3075 124.021C25.1167 124.019 24.9247 123.958 24.7595 123.836C24.691 123.785 24.6282 123.722 24.5711 123.648C24.4285 123.448 24.3485 123.208 24.3371 122.957C24.3314 122.152 24.771 121.667 25.3933 121.701ZM30.3145 122.991C30.2687 121.524 31.2335 120.428 32.6037 120.388C34.0595 120.342 35.1214 121.319 35.167 122.746C35.2127 124.19 34.3278 125.212 32.9634 125.349C31.4734 125.498 30.2915 124.419 30.3145 122.991ZM31.7474 122.854C31.7474 122.833 31.7478 122.813 31.7485 122.792C31.771 122.164 32.1381 121.74 32.6671 121.707C32.7097 121.704 32.7533 121.704 32.7978 121.707C33.0662 121.712 33.3174 121.849 33.4771 122.066C33.4982 122.094 33.5178 122.123 33.5361 122.154C33.6609 122.361 33.7226 122.618 33.7205 122.874C33.7186 123.159 33.6386 123.442 33.4799 123.654L33.4715 123.665L33.4706 123.666C33.3595 123.806 33.2155 123.906 33.0579 123.963C32.8521 124.04 32.6278 124.039 32.4254 123.968C32.3291 123.935 32.2369 123.885 32.1527 123.819C32.0906 123.774 32.0397 123.717 31.9945 123.656L31.9929 123.653C31.8218 123.42 31.7362 123.14 31.7474 122.855V122.854ZM29.8121 121.855C29.8121 122.15 29.8127 122.445 29.8133 122.74C29.8146 123.33 29.8158 123.92 29.8121 124.51C29.8178 124.915 29.4981 125.252 29.0927 125.263C29.0242 125.263 28.9499 125.258 28.8815 125.241C28.5961 125.166 28.3791 124.864 28.3791 124.504V119.965C28.3791 119.876 28.3785 119.787 28.3778 119.698C28.3766 119.521 28.3753 119.345 28.3791 119.166C28.3847 118.727 28.6645 118.441 29.087 118.441C29.5209 118.435 29.8121 118.721 29.8121 119.178C29.8158 119.772 29.8146 120.368 29.8133 120.964C29.8127 121.261 29.8121 121.559 29.8121 121.855Z" fill="white"/>
<path d="M74 148C87.2548 148 98 137.255 98 124C98 110.745 87.2548 100 74 100C60.7452 100 50 110.745 50 124C50 137.255 60.7452 148 74 148Z" fill="#CCCCCC"/>
<path opacity="0.24" fill-rule="evenodd" clip-rule="evenodd" d="M83.2401 112.055H64.7274C62.7994 112.055 61.2365 113.617 61.2365 115.545V132.858C61.2365 134.786 62.7994 136.349 64.7274 136.349H83.2401C85.1681 136.349 86.731 134.786 86.731 132.858V115.545C86.731 113.617 85.1681 112.055 83.2401 112.055ZM64.7274 111.727C62.6186 111.727 60.9092 113.437 60.9092 115.545V132.858C60.9092 134.967 62.6186 136.676 64.7274 136.676H83.2401C85.3489 136.676 87.0582 134.967 87.0582 132.858V115.545C87.0582 113.437 85.3488 111.727 83.2401 111.727H64.7274Z" fill="white"/>
<path fill-rule="evenodd" clip-rule="evenodd" d="M67.3414 136.663H67.3421C67.8434 136.658 68.3445 136.653 68.845 136.653L68.8439 136.645L68.8425 136.637C68.8434 136.642 68.8443 136.647 68.845 136.652C68.9593 136.652 69.0734 136.658 69.1875 136.669H77.437C78.1222 136.669 78.8073 136.671 79.4923 136.672C80.8625 136.675 82.2326 136.677 83.6027 136.669H83.6313C85.5381 136.652 87.0681 135.1 87.0567 133.193V129.853C87.0567 129.841 87.0573 129.827 87.0579 129.811C87.0585 129.801 87.0591 129.791 87.0597 129.78C87.0645 129.696 87.0699 129.6 87.0338 129.602C86.9311 129.608 86.769 129.644 86.7119 129.701C86.2741 129.993 85.8495 130.312 85.425 130.631C84.5758 131.268 83.7267 131.906 82.7714 132.328C79.0538 133.583 75.7659 133.642 72.2762 132.799C72.0851 132.729 71.9942 132.737 71.8329 132.751C71.7289 132.76 71.5955 132.771 71.3875 132.766L71.3085 132.769C70.9642 132.78 70.4643 132.795 69.867 133.159C68.4682 133.587 66.5713 133.642 65.591 133.495C65.5951 133.505 65.5977 133.513 65.5998 133.52L65.5909 133.501C65.5773 133.486 65.5601 133.472 65.5434 133.459C65.4903 133.417 65.4426 133.38 65.5338 133.301C65.5605 133.284 65.5871 133.267 65.6138 133.249C65.667 133.213 65.7203 133.178 65.7737 133.147C66.5215 132.662 67.2237 132.131 67.6861 131.349C68.3147 130.587 68.0234 130.29 67.4679 129.723L67.4469 129.702C64.7406 126.94 63.9442 124.01 64.2265 120.068C64.5633 117.904 65.5566 116.043 66.9897 114.422C67.8574 113.44 68.8907 112.646 70.0211 111.984C70.0374 111.974 70.0565 111.965 70.0758 111.957C70.1311 111.932 70.1897 111.906 70.1981 111.83C70.2047 111.77 70.1082 111.75 70.0739 111.75C69.4298 111.75 68.7938 111.744 68.1609 111.739C66.9035 111.727 65.6579 111.716 64.3821 111.75C62.5495 111.802 60.8793 113.064 60.9096 115.313C60.9172 119.286 60.9147 123.257 60.9121 127.228C60.9109 129.212 60.9096 131.197 60.9096 133.182C60.9096 135.026 62.3197 136.573 64.1637 136.647C65.2214 136.686 66.2818 136.674 67.3413 136.663H67.3414ZM65.6634 133.626L65.6766 133.644C65.7722 133.729 65.8673 133.815 65.9617 133.901C65.8701 133.813 65.7754 133.726 65.6766 133.638L65.6634 133.626ZM68.5858 136.368C68.5541 136.347 68.5234 136.325 68.4969 136.298L68.4893 136.297L68.4967 136.304C68.5234 136.329 68.5541 136.349 68.5858 136.368ZM69.7357 123.877C70.0271 123.877 70.3127 123.876 70.5943 123.875C71.1453 123.874 71.6806 123.873 72.2134 123.877C72.6643 123.882 72.9098 124.071 72.9555 124.43C73.0069 124.881 72.7443 125.184 72.2533 125.19C71.5599 125.198 70.8698 125.197 70.1779 125.196H70.1777C69.9469 125.196 69.7158 125.195 69.4845 125.195C69.4077 125.195 69.3313 125.196 69.255 125.197C69.0653 125.199 68.8767 125.202 68.6853 125.19C68.3541 125.172 68.0287 125.104 67.8689 124.761C67.709 124.419 67.8231 124.111 68.0401 123.831C68.9193 122.712 69.8042 121.587 70.6891 120.468C70.7405 120.4 70.7918 120.331 70.8433 120.268C70.8011 120.197 70.7467 120.203 70.6935 120.209C70.6746 120.211 70.6557 120.213 70.6377 120.211C70.3295 120.209 70.0198 120.209 69.7102 120.209H69.7099C69.4003 120.209 69.0906 120.209 68.7823 120.206C68.6395 120.206 68.4969 120.189 68.3598 120.16C68.0345 120.086 67.8346 119.76 67.9089 119.441C67.9602 119.224 68.1314 119.047 68.3485 118.995C68.4854 118.961 68.6282 118.944 68.7709 118.944C69.787 118.938 70.809 118.938 71.8251 118.944C72.0078 118.938 72.1849 118.961 72.3618 119.007C72.7501 119.138 72.9155 119.498 72.7614 119.875C72.6245 120.2 72.4074 120.48 72.1905 120.759C71.4426 121.713 70.6947 122.661 69.9469 123.603C69.8841 123.677 69.827 123.751 69.7357 123.877ZM76.3581 120.873C76.4951 120.696 76.6378 120.531 76.8719 120.485C77.3229 120.394 77.7454 120.685 77.7511 121.142C77.7682 122.283 77.7625 123.425 77.7511 124.567C77.7511 124.864 77.557 125.126 77.2773 125.212C76.9918 125.321 76.6663 125.235 76.4779 124.989C76.381 124.87 76.341 124.847 76.2039 124.955C75.6845 125.378 75.0965 125.452 74.4627 125.246C73.4465 124.915 73.0298 124.122 72.9155 123.157C72.7957 122.112 73.1439 121.221 74.0802 120.673C74.8566 120.211 75.6445 120.251 76.3581 120.873ZM75.3933 121.701C75.4793 121.705 75.5634 121.721 75.6434 121.748C75.8155 121.803 75.9685 121.913 76.0783 122.066C76.3981 122.5 76.3981 123.214 76.0783 123.648C76.0213 123.722 75.9585 123.785 75.8899 123.836C75.7149 123.966 75.5095 124.026 75.3075 124.021C75.1167 124.019 74.9247 123.958 74.7595 123.836C74.691 123.785 74.6282 123.722 74.5711 123.648C74.4285 123.448 74.3485 123.208 74.3371 122.957C74.3314 122.152 74.771 121.667 75.3933 121.701ZM80.3145 122.991C80.2687 121.524 81.2335 120.428 82.6037 120.388C84.0595 120.342 85.1214 121.319 85.167 122.746C85.2127 124.19 84.3278 125.212 82.9634 125.349C81.4734 125.498 80.2915 124.419 80.3145 122.991ZM81.7474 122.854C81.7474 122.833 81.7478 122.813 81.7485 122.792C81.771 122.164 82.1381 121.74 82.6671 121.707C82.7097 121.704 82.7533 121.704 82.7978 121.707C83.0662 121.712 83.3174 121.849 83.4771 122.066C83.4982 122.094 83.5178 122.123 83.5361 122.154C83.6609 122.361 83.7226 122.618 83.7205 122.874C83.7186 123.159 83.6386 123.442 83.4799 123.654L83.4715 123.665L83.4706 123.666C83.3595 123.806 83.2155 123.906 83.0579 123.963C82.8521 124.04 82.6278 124.039 82.4254 123.968C82.3291 123.935 82.2369 123.885 82.1527 123.819C82.0906 123.774 82.0397 123.717 81.9945 123.656L81.9929 123.653C81.8218 123.42 81.7362 123.14 81.7474 122.855V122.854ZM79.8121 121.855C79.8121 122.15 79.8127 122.445 79.8133 122.74C79.8146 123.33 79.8158 123.92 79.8121 124.51C79.8178 124.915 79.4981 125.252 79.0927 125.263C79.0242 125.263 78.9499 125.258 78.8815 125.241C78.5961 125.166 78.3791 124.864 78.3791 124.504V119.965C78.3791 119.876 78.3785 119.787 78.3778 119.698C78.3766 119.521 78.3753 119.345 78.3791 119.166C78.3847 118.727 78.6645 118.441 79.087 118.441C79.5209 118.435 79.8121 118.721 79.8121 119.178C79.8158 119.772 79.8146 120.368 79.8133 120.964C79.8127 121.261 79.8121 121.559 79.8121 121.855Z" fill="white"/>
<path d="M24 198C37.2548 198 48 187.255 48 174C48 160.745 37.2548 150 24 150C10.7452 150 0 160.745 0 174C0 187.255 10.7452 198 24 198Z" fill="#0083FE"/>
<path fill-rule="evenodd" clip-rule="evenodd" d="M10.9092 173.086C10.9092 166.328 16.8257 160.85 24.1241 160.85C31.4225 160.85 37.3389 166.328 37.3389 173.086C37.3389 179.843 31.4225 185.322 24.1241 185.322C22.8065 185.322 21.5344 185.142 20.3336 184.81L15.834 187.279V182.614C12.8308 180.371 10.9092 176.936 10.9092 173.086ZM22.5272 173.816L25.9205 177.435L33.2037 169.704L26.6654 173.323L23.1893 169.704L15.9061 177.435L22.5272 173.816Z" fill="white"/>
<path d="M74 198C87.2548 198 98 187.255 98 174C98 160.745 87.2548 150 74 150C60.7452 150 50 160.745 50 174C50 187.255 60.7452 198 74 198Z" fill="#CCCCCC"/>
<path fill-rule="evenodd" clip-rule="evenodd" d="M60.9092 173.086C60.9092 166.328 66.8257 160.85 74.1241 160.85C81.4225 160.85 87.3389 166.328 87.3389 173.086C87.3389 179.843 81.4225 185.322 74.1241 185.322C72.8065 185.322 71.5344 185.142 70.3336 184.81L65.834 187.279V182.614C62.8308 180.371 60.9092 176.936 60.9092 173.086ZM72.5272 173.816L75.9205 177.435L83.2037 169.704L76.6654 173.323L73.1893 169.704L65.9061 177.435L72.5272 173.816Z" fill="white"/>
<path d="M24 248C37.2548 248 48 237.255 48 224C48 210.745 37.2548 200 24 200C10.7452 200 0 210.745 0 224C0 237.255 10.7452 248 24 248Z" fill="#03A9F4"/>
<path d="M36.2468 226.76C38.1293 218.3 30.7185 210.615 22.0155 212.09C17.2908 209.158 11 212.471 11 218.093C11 219.401 11.3607 220.625 11.9878 221.68C10.2386 230.159 17.71 237.734 26.4054 236.158C27.4192 236.695 28.576 237 29.8054 237C35.1658 237 38.5983 231.44 36.2468 226.76ZM24.1016 232.536C21.5649 232.536 19.0867 231.924 17.6201 229.829C15.4344 226.737 18.3166 225.191 19.7311 226.369C20.9118 227.365 20.5413 229.773 24.0084 229.773C25.5367 229.773 27.4236 229.121 27.4236 227.605C27.4236 224.556 20.6594 225.999 17.97 222.674C16.9822 221.457 16.7959 219.309 18.009 217.751C20.1232 215.03 26.3274 214.864 28.9952 216.919C31.4582 218.826 30.7932 221.356 28.8056 221.356C26.4152 221.356 27.6716 218.228 23.8124 218.228C21.0147 218.228 19.9142 220.218 21.8844 221.186C24.5067 222.488 31.3618 222.082 31.3618 227.255C31.3532 230.892 27.8449 232.536 24.1016 232.536Z" fill="white"/>
<path d="M74 248C87.2548 248 98 237.255 98 224C98 210.745 87.2548 200 74 200C60.7452 200 50 210.745 50 224C50 237.255 60.7452 248 74 248Z" fill="#CCCCCC"/>
<path d="M86.2468 226.76C88.1293 218.3 80.7185 210.615 72.0155 212.09C67.2908 209.158 61 212.471 61 218.093C61 219.401 61.3607 220.625 61.9878 221.68C60.2386 230.159 67.71 237.734 76.4054 236.158C77.4192 236.695 78.576 237 79.8054 237C85.1658 237 88.5983 231.44 86.2468 226.76ZM74.1016 232.536C71.5649 232.536 69.0867 231.924 67.6201 229.829C65.4344 226.737 68.3166 225.191 69.7311 226.369C70.9118 227.365 70.5413 229.773 74.0084 229.773C75.5367 229.773 77.4236 229.121 77.4236 227.605C77.4236 224.556 70.6594 225.999 67.97 222.674C66.9822 221.457 66.7959 219.309 68.009 217.751C70.1232 215.03 76.3274 214.864 78.9952 216.919C81.4582 218.826 80.7932 221.356 78.8056 221.356C76.4152 221.356 77.6716 218.228 73.8124 218.228C71.0147 218.228 69.9142 220.218 71.8844 221.186C74.5067 222.488 81.3618 222.082 81.3618 227.255C81.3532 230.892 77.8449 232.536 74.1016 232.536Z" fill="white"/>
<path d="M24 298C37.2548 298 48 287.255 48 274C48 260.745 37.2548 250 24 250C10.7452 250 0 260.745 0 274C0 287.255 10.7452 298 24 298Z" fill="#8E24AA"/>
<path d="M37.195 276.367C38.0892 268.84 36.7654 264.088 34.3775 261.939L34.3787 261.938C30.5246 258.267 17.5086 257.724 12.8977 262.103C10.827 264.244 10.0977 267.388 10.0177 271.279C9.9378 275.172 9.84288 282.465 16.6381 284.443H16.6444L16.6381 287.464C16.6381 287.464 16.5919 288.688 17.3737 288.934C18.268 289.224 18.6726 288.655 21.4539 285.333C26.1048 285.737 29.6766 284.812 30.0825 284.678C31.0217 284.363 36.3358 283.66 37.195 276.367ZM21.9122 283.208C21.9122 283.208 18.9686 286.878 18.0531 287.831C17.7534 288.141 17.4249 288.112 17.4299 287.498C17.4299 287.094 17.4524 282.482 17.4524 282.482C11.6913 280.831 12.031 274.621 12.0934 271.373C12.1558 268.123 12.7503 265.462 14.5038 263.67C18.549 259.877 29.9601 260.725 32.8676 263.458C36.4219 266.609 35.1568 275.511 35.1643 275.814C34.4337 281.901 30.1275 282.287 29.3357 282.551C28.9972 282.663 25.8563 283.471 21.9122 283.208Z" fill="white"/>
<path d="M23.5408 264.383C23.06 264.383 23.06 265.132 23.5408 265.139C27.2713 265.167 30.3435 267.768 30.3773 272.537C30.3773 273.04 31.1141 273.034 31.1079 272.531H31.1066C31.0667 267.392 27.7121 264.412 23.5408 264.383Z" fill="white"/>
<path d="M28.4478 271.746C28.4365 272.243 29.1721 272.267 29.1784 271.764C29.2396 268.93 27.4924 266.596 24.209 266.35C23.7282 266.315 23.6782 267.07 24.1578 267.105C27.0053 267.321 28.5052 269.264 28.4478 271.746Z" fill="white"/>
<path d="M27.6611 274.97C27.0441 274.613 26.4159 274.835 26.1561 275.186L25.6129 275.889C25.3369 276.246 24.8211 276.199 24.8211 276.199C21.0569 275.203 20.0503 271.264 20.0503 271.264C20.0503 271.264 20.0041 270.731 20.3488 270.445L21.0282 269.883C21.3679 269.613 21.5827 268.964 21.2367 268.326C20.3125 266.656 19.6918 266.08 19.3759 265.638C19.0437 265.222 18.5441 265.128 18.0246 265.409H18.0133C16.933 266.041 15.7503 267.224 16.1287 268.442C16.7744 269.726 17.9609 273.818 21.7425 276.911C23.5197 278.373 26.3322 279.872 27.5262 280.218L27.5374 280.235C28.7139 280.627 29.8579 279.398 30.4686 278.286V278.277C30.7396 277.739 30.6497 277.229 30.2538 276.896C29.5519 276.211 28.4928 275.456 27.6611 274.97Z" fill="white"/>
<path d="M24.7236 269.138C25.9238 269.208 26.5058 269.835 26.5682 271.122C26.5907 271.626 27.3213 271.591 27.2988 271.087C27.2189 269.406 26.3422 268.47 24.7635 268.382C24.2827 268.353 24.2378 269.109 24.7236 269.138Z" fill="white"/>
<path d="M74 298C87.2548 298 98 287.255 98 274C98 260.745 87.2548 250 74 250C60.7452 250 50 260.745 50 274C50 287.255 60.7452 298 74 298Z" fill="#CCCCCC"/>
<path d="M87.195 276.367C88.0892 268.84 86.7654 264.088 84.3775 261.939L84.3787 261.938C80.5246 258.267 67.5086 257.724 62.8977 262.103C60.827 264.244 60.0977 267.388 60.0177 271.279C59.9378 275.172 59.8429 282.465 66.6381 284.443H66.6444L66.6381 287.464C66.6381 287.464 66.5919 288.688 67.3737 288.934C68.268 289.224 68.6726 288.655 71.4539 285.333C76.1048 285.737 79.6766 284.812 80.0825 284.678C81.0217 284.363 86.3358 283.66 87.195 276.367ZM71.9122 283.208C71.9122 283.208 68.9686 286.878 68.0531 287.831C67.7534 288.141 67.4249 288.112 67.4299 287.498C67.4299 287.094 67.4524 282.482 67.4524 282.482C61.6913 280.831 62.031 274.621 62.0934 271.373C62.1558 268.123 62.7503 265.462 64.5038 263.67C68.549 259.877 79.9601 260.725 82.8676 263.458C86.4219 266.609 85.1568 275.511 85.1643 275.814C84.4337 281.901 80.1275 282.287 79.3357 282.551C78.9972 282.663 75.8563 283.471 71.9122 283.208Z" fill="white"/>
<path d="M73.5408 264.383C73.06 264.383 73.06 265.132 73.5408 265.139C77.2713 265.167 80.3435 267.768 80.3773 272.537C80.3773 273.04 81.1141 273.034 81.1079 272.531H81.1066C81.0667 267.392 77.7121 264.412 73.5408 264.383Z" fill="white"/>
<path d="M78.4478 271.746C78.4365 272.243 79.1721 272.267 79.1784 271.764C79.2396 268.93 77.4924 266.596 74.209 266.35C73.7282 266.315 73.6782 267.07 74.1578 267.105C77.0053 267.321 78.5052 269.264 78.4478 271.746Z" fill="white"/>
<path d="M77.6611 274.97C77.0441 274.613 76.4159 274.835 76.1561 275.186L75.6129 275.889C75.3369 276.246 74.8211 276.199 74.8211 276.199C71.0569 275.203 70.0503 271.264 70.0503 271.264C70.0503 271.264 70.0041 270.731 70.3488 270.445L71.0282 269.883C71.3679 269.613 71.5827 268.964 71.2367 268.326C70.3125 266.656 69.6918 266.08 69.3759 265.638C69.0437 265.222 68.5441 265.128 68.0246 265.409H68.0133C66.933 266.041 65.7503 267.224 66.1287 268.442C66.7744 269.726 67.9609 273.818 71.7425 276.911C73.5197 278.373 76.3322 279.872 77.5262 280.218L77.5374 280.235C78.7139 280.627 79.8579 279.398 80.4686 278.286V278.277C80.7396 277.739 80.6497 277.229 80.2538 276.896C79.5519 276.211 78.4928 275.456 77.6611 274.97Z" fill="white"/>
<path d="M74.7236 269.138C75.9238 269.208 76.5058 269.835 76.5682 271.122C76.5907 271.626 77.3213 271.591 77.2988 271.087C77.2189 269.406 76.3422 268.47 74.7635 268.382C74.2827 268.353 74.2378 269.109 74.7236 269.138Z" fill="white"/>
<path d="M24 348C37.2548 348 48 337.255 48 324C48 310.745 37.2548 300 24 300C10.7452 300 0 310.745 0 324C0 337.255 10.7452 348 24 348Z" fill="#EF9F00"/>
<path fill-rule="evenodd" clip-rule="evenodd" d="M12.5009 312.727H35.4999C36.177 312.727 36.7631 312.967 37.258 313.445C37.7523 313.924 38.0001 314.499 38.0001 315.17C38.0001 315.975 37.7446 316.743 37.235 317.476C36.7245 318.209 36.0893 318.835 35.3289 319.354C32.8007 321.069 30.8931 322.363 29.5977 323.243C28.8858 323.726 28.3563 324.086 28.0166 324.317C27.9662 324.351 27.8875 324.406 27.783 324.479C27.6703 324.558 27.5278 324.659 27.3525 324.783C27.0139 325.022 26.7326 325.215 26.5087 325.363C26.2843 325.51 26.0137 325.676 25.6961 325.859C25.3781 326.043 25.0787 326.18 24.7975 326.272C24.5163 326.363 24.2558 326.409 24.0163 326.409H24.0009H23.9853C23.7457 326.409 23.4854 326.363 23.2041 326.272C22.9229 326.18 22.6233 326.042 22.3055 325.859C21.9877 325.676 21.7167 325.511 21.493 325.363C21.269 325.215 20.9878 325.022 20.6493 324.783C20.4735 324.659 20.331 324.558 20.2185 324.479L20.2075 324.472C20.1085 324.402 20.0334 324.35 19.9851 324.317C19.549 324.017 19.0207 323.656 18.4081 323.239C17.6895 322.749 16.8533 322.181 15.8915 321.53C14.1102 320.324 13.0424 319.598 12.6884 319.354C12.0425 318.927 11.4331 318.339 10.8603 317.591C10.2876 316.842 10.0011 316.147 10.0011 315.506C10.0011 314.712 10.217 314.05 10.6495 313.521C11.0816 312.992 11.6985 312.727 12.5009 312.727ZM36.4367 320.988C34.3086 322.396 32.4998 323.608 31.0102 324.624L37.9991 331.455V319.66C37.5511 320.148 37.0303 320.591 36.4367 320.988ZM10 319.66C10.4583 320.159 10.9847 320.602 11.5783 320.988C13.7909 322.458 15.593 323.668 16.9918 324.622L10 331.455V319.66ZM37.1371 333.623C36.6734 334.024 36.128 334.227 35.4987 334.227H12.4996C11.8703 334.227 11.3245 334.024 10.861 333.623L18.7951 325.868C18.9937 326.007 19.1773 326.137 19.3427 326.256C19.9366 326.683 20.4182 327.017 20.7882 327.256C21.1577 327.495 21.6499 327.74 22.2646 327.989C22.8794 328.238 23.4521 328.363 23.9835 328.363H23.999H24.0146C24.5459 328.363 25.1187 328.238 25.7334 327.989C26.3478 327.74 26.8401 327.495 27.2099 327.256C27.5799 327.017 28.0617 326.683 28.6554 326.256C28.8297 326.133 29.0141 326.003 29.2045 325.87L37.1371 333.623Z" fill="white"/>
<path d="M74 348C87.2548 348 98 337.255 98 324C98 310.745 87.2548 300 74 300C60.7452 300 50 310.745 50 324C50 337.255 60.7452 348 74 348Z" fill="#CCCCCC"/>
<path fill-rule="evenodd" clip-rule="evenodd" d="M62.5009 312.727H85.4999C86.177 312.727 86.7631 312.967 87.258 313.445C87.7523 313.924 88.0001 314.499 88.0001 315.17C88.0001 315.975 87.7446 316.743 87.235 317.476C86.7245 318.209 86.0893 318.835 85.3289 319.354C82.8007 321.069 80.8931 322.363 79.5977 323.243C78.8858 323.726 78.3563 324.086 78.0166 324.317C77.9662 324.351 77.8875 324.406 77.783 324.479C77.6703 324.558 77.5278 324.659 77.3525 324.783C77.0139 325.022 76.7326 325.215 76.5087 325.363C76.2843 325.51 76.0137 325.676 75.6961 325.859C75.3781 326.043 75.0787 326.18 74.7975 326.272C74.5163 326.363 74.2558 326.409 74.0163 326.409H74.0009H73.9853C73.7457 326.409 73.4854 326.363 73.2041 326.272C72.9229 326.18 72.6233 326.042 72.3055 325.859C71.9877 325.676 71.7167 325.511 71.493 325.363C71.269 325.215 70.9878 325.022 70.6493 324.783C70.4735 324.659 70.331 324.558 70.2185 324.479L70.2075 324.472C70.1085 324.402 70.0334 324.35 69.9851 324.317C69.549 324.017 69.0207 323.656 68.4081 323.239C67.6895 322.749 66.8533 322.181 65.8915 321.53C64.1102 320.324 63.0424 319.598 62.6884 319.354C62.0425 318.927 61.4331 318.339 60.8603 317.591C60.2876 316.842 60.0011 316.147 60.0011 315.506C60.0011 314.712 60.217 314.05 60.6495 313.521C61.0816 312.992 61.6985 312.727 62.5009 312.727ZM86.4367 320.988C84.3086 322.396 82.4998 323.608 81.0102 324.624L87.9991 331.455V319.66C87.5511 320.148 87.0303 320.591 86.4367 320.988ZM60 319.66C60.4583 320.159 60.9847 320.602 61.5783 320.988C63.7909 322.458 65.593 323.668 66.9918 324.622L60 331.455V319.66ZM87.1371 333.623C86.6734 334.024 86.128 334.227 85.4987 334.227H62.4996C61.8703 334.227 61.3245 334.024 60.861 333.623L68.7951 325.868C68.9937 326.007 69.1773 326.137 69.3427 326.256C69.9366 326.683 70.4182 327.017 70.7882 327.256C71.1577 327.495 71.6499 327.74 72.2646 327.989C72.8794 328.238 73.4521 328.363 73.9835 328.363H73.999H74.0146C74.5459 328.363 75.1187 328.238 75.7334 327.989C76.3478 327.74 76.8401 327.495 77.2099 327.256C77.5799 327.017 78.0617 326.683 78.6554 326.256C78.8297 326.133 79.0141 326.003 79.2045 325.87L87.1371 333.623Z" fill="white"/>
<path d="M24 398C37.2548 398 48 387.255 48 374C48 360.745 37.2548 350 24 350C10.7452 350 0 360.745 0 374C0 387.255 10.7452 398 24 398Z" fill="#00A0D2"/>
<path d="M23.9998 360.909C18.586 360.909 14.1816 364.986 14.1816 369.996C14.1816 376.214 22.9679 385.343 23.342 385.729C23.6934 386.091 24.3068 386.09 24.6575 385.729C25.0316 385.343 33.8179 376.214 33.8179 369.996C33.8179 364.986 29.4135 360.909 23.9998 360.909ZM23.9998 374.568C21.276 374.568 19.06 372.517 19.06 369.996C19.06 367.475 21.276 365.424 23.9998 365.424C26.7235 365.424 28.9395 367.475 28.9395 369.996C28.9395 372.517 26.7235 374.568 23.9998 374.568Z" fill="white"/>
<path d="M74 398C87.2548 398 98 387.255 98 374C98 360.745 87.2548 350 74 350C60.7452 350 50 360.745 50 374C50 387.255 60.7452 398 74 398Z" fill="#CCCCCC"/>
<path d="M73.9998 360.909C68.586 360.909 64.1816 364.986 64.1816 369.996C64.1816 376.214 72.9679 385.343 73.342 385.729C73.6934 386.091 74.3068 386.09 74.6575 385.729C75.0316 385.343 83.8179 376.214 83.8179 369.996C83.8179 364.986 79.4135 360.909 73.9998 360.909ZM73.9998 374.568C71.276 374.568 69.06 372.517 69.06 369.996C69.06 367.475 71.276 365.424 73.9998 365.424C76.7235 365.424 78.9395 367.475 78.9395 369.996C78.9395 372.517 76.7235 374.568 73.9998 374.568Z" fill="white"/>
<defs>
<clipPath id="clip0">
<rect width="18" height="18" fill="white" transform="translate(15 8)"/>
</clipPath>
<clipPath id="clip1">
<rect width="18" height="18" fill="white" transform="translate(65 8)"/>
</clipPath>
</defs>
</svg>
