<svg width="28" height="28" viewBox="0 0 28 28" fill="none" xmlns="http://www.w3.org/2000/svg">
<path fill-rule="evenodd" clip-rule="evenodd" d="M6.84191 2.11467C6.98073 2.16191 7.19487 2.27215 7.31783 2.35092C8.07127 2.84709 10.1692 5.51291 10.8553 6.8439C11.2479 7.60387 11.3787 8.16697 11.2558 8.58438C11.1289 9.03328 10.9187 9.26957 9.97885 10.0217C9.60207 10.3248 9.2491 10.6359 9.19363 10.7187C9.05085 10.9235 8.9358 11.325 8.9358 11.6086C8.93983 12.2662 9.3681 13.4594 9.93123 14.3768C10.3674 15.0895 11.1487 16.0031 11.9221 16.7041C12.8302 17.531 13.6313 18.0941 14.5355 18.539C15.6974 19.1139 16.4073 19.2597 16.9268 19.0195C17.0577 18.9604 17.1965 18.8816 17.2401 18.8462C17.2798 18.8108 17.5851 18.4406 17.9183 18.0311C18.5607 17.2277 18.7074 17.0978 19.1476 16.9482C19.7068 16.7592 20.2779 16.8104 20.8529 17.1018C21.2892 17.3263 22.2409 17.913 22.8556 18.3382C23.6646 18.9013 25.3936 20.3032 25.6277 20.5828C26.0401 21.0868 26.1115 21.7325 25.8339 22.4453C25.5404 23.1974 24.3983 24.6071 23.6012 25.2096C22.8794 25.753 22.3678 25.9617 21.6937 25.9932C21.1385 26.0207 20.9085 25.9735 20.1986 25.6821C14.6307 23.4022 10.185 20 6.6555 15.3258C4.81146 12.8845 3.40756 10.3524 2.44782 7.72597C1.88869 6.1942 1.86094 5.5287 2.32091 4.74509C2.51924 4.41434 3.36394 3.59527 3.97862 3.13851C5.00182 2.38244 5.47371 2.10284 5.85047 2.02411C6.10823 1.96897 6.55634 2.01228 6.84191 2.11467Z" fill="url(#paint0_linear)"/>
<defs>
<linearGradient id="paint0_linear" x1="14" y1="2" x2="14.0665" y2="24.1159" gradientUnits="userSpaceOnUse">
<stop stop-color="#8AD336"/>
<stop offset="1" stop-color="#509600"/>
</linearGradient>
</defs>
</svg>
