<svg width="44" height="44" viewBox="0 0 44 44" fill="none" xmlns="http://www.w3.org/2000/svg">
<path d="M22 44C34.1503 44 44 34.1503 44 22C44 9.84974 34.1503 0 22 0C9.84974 0 0 9.84974 0 22C0 34.1503 9.84974 44 22 44Z" fill="url(#paint0_linear)"/>
<path fill-rule="evenodd" clip-rule="evenodd" d="M11.0833 11.1559V31.3518C11.0833 32.4511 11.9525 33.3422 13.0249 33.3422H24.8134C24.358 32.347 24.1034 31.236 24.1034 30.064C24.1034 26.1336 26.9661 22.8886 30.6706 22.4003V14.0829L25.8737 9.16562H13.0249C11.9525 9.16562 11.0833 10.0567 11.0833 11.1559ZM24.1034 18.9416H14.3954V21.2832H24.1034V18.9416ZM14.3954 23.3906H20.9055V25.7321H14.3954V23.3906ZM24.1605 10.1608V15.722H29.5856L24.1605 10.1608ZM35.2962 28.1481L32.7109 30.7983V24.6199H30.6551V30.7983L28.0698 28.1481L26.6161 29.6383L31.683 34.8323L36.7499 29.6383L35.2962 28.1481Z" fill="white"/>
<defs>
<linearGradient id="paint0_linear" x1="22" y1="0" x2="22" y2="44" gradientUnits="userSpaceOnUse">
<stop stop-color="#5930FF"/>
<stop offset="0.0001" stop-color="#5F65F2"/>
<stop offset="1" stop-color="#2A32E1"/>
</linearGradient>
</defs>
</svg>