<svg width="28" height="28" viewBox="0 0 28 28" fill="none" xmlns="http://www.w3.org/2000/svg">
<path fill-rule="evenodd" clip-rule="evenodd" d="M3.45895 3.66675H24.5414C25.1621 3.66675 25.6993 3.88606 26.153 4.32447C26.6062 4.76342 26.8332 5.29044 26.8332 5.90636C26.8332 6.64355 26.599 7.34808 26.1319 8.01974C25.6639 8.69139 25.0816 9.26551 24.3846 9.74125C22.0672 11.3131 20.3185 12.4998 19.1311 13.3061C18.4785 13.7489 17.9931 14.0787 17.6817 14.2905C17.6355 14.3222 17.5634 14.3723 17.4675 14.4396C17.3643 14.5117 17.2337 14.6037 17.0729 14.7174C16.7625 14.9368 16.5048 15.114 16.2994 15.2495C16.0938 15.3846 15.8457 15.5363 15.5545 15.7043C15.2631 15.8724 14.9887 15.9983 14.7309 16.0823C14.4731 16.1661 14.2344 16.2082 14.0148 16.2082H14.0006H13.9863C13.7667 16.2082 13.5281 16.1661 13.2702 16.0823C13.0125 15.9983 12.7378 15.8721 12.4466 15.7043C12.1552 15.5363 11.9068 15.385 11.7017 15.2495C11.4964 15.114 11.2386 14.9368 10.9284 14.7174C10.7672 14.6037 10.6366 14.5118 10.5334 14.4393L10.5233 14.4323C10.4325 14.3688 10.3638 14.3208 10.3195 14.2905C9.91969 14.0157 9.43544 13.6846 8.87393 13.3022C8.21517 12.8532 7.44859 12.3329 6.56709 11.7359C4.93415 10.6303 3.9554 9.96535 3.63085 9.74125C3.03882 9.34939 2.48015 8.81066 1.95513 8.1248C1.43011 7.43866 1.16748 6.8018 1.16748 6.21402C1.16748 5.48635 1.36539 4.87959 1.76184 4.39442C2.15797 3.90947 2.72344 3.66675 3.45895 3.66675ZM25.4002 11.2392C23.4494 12.5296 21.7913 13.6405 20.4258 14.5725L26.8324 20.8337V10.0213C26.4217 10.4695 25.9443 10.8752 25.4002 11.2392ZM1.1665 10.0214C1.58659 10.4788 2.06911 10.8848 2.61324 11.2393C4.64142 12.5863 6.29346 13.6952 7.57566 14.5701L1.1665 20.8335V10.0214ZM26.0421 22.8208C25.6172 23.1883 25.1173 23.3745 24.5403 23.3745H3.45779C2.88091 23.3745 2.38067 23.1883 1.95575 22.8208L9.22874 15.7122C9.41066 15.8399 9.57892 15.9592 9.73065 16.0679C10.2751 16.4597 10.7165 16.7654 11.0556 16.9845C11.3944 17.2041 11.8455 17.4279 12.4091 17.6564C12.9726 17.8853 13.4976 17.9993 13.9847 17.9993H13.9989H14.0132C14.5002 17.9993 15.0253 17.8852 15.5888 17.6564C16.152 17.4279 16.6032 17.2041 16.9423 16.9845C17.2814 16.7654 17.7231 16.4597 18.2672 16.0679C18.427 15.955 18.5961 15.8362 18.7705 15.7141L26.0421 22.8208Z" fill="url(#paint0_linear)"/>
<defs>
<linearGradient id="paint0_linear" x1="13.9999" y1="3.66675" x2="13.9999" y2="23.3745" gradientUnits="userSpaceOnUse">
<stop stop-color="#FFC044"/>
<stop offset="1" stop-color="#EF9F00"/>
</linearGradient>
</defs>
</svg>
