<svg width="44" height="44" viewBox="0 0 44 44" fill="none" xmlns="http://www.w3.org/2000/svg">
<circle cx="22" cy="22" r="20" fill="white"/>
<path fill-rule="evenodd" clip-rule="evenodd" d="M44 22C44 34.1503 34.1503 44 22 44C9.84974 44 0 34.1503 0 22C0 9.84974 9.84974 0 22 0C34.1503 0 44 9.84974 44 22ZM22.0576 35.5137H22.0519C19.7603 35.5129 17.5085 34.9407 15.5086 33.855L8.25 35.75L10.1925 28.6887C8.99428 26.622 8.36377 24.2778 8.3648 21.8761C8.3678 14.3627 14.5103 8.25 22.0574 8.25C25.7203 8.25157 29.1582 9.6707 31.7434 12.2465C34.3285 14.8221 35.7514 18.2458 35.75 21.8869C35.747 29.3985 29.6069 35.5106 22.0576 35.5137ZM15.9954 31.229L16.3971 31.4673C18.0859 32.4691 20.0219 32.9992 21.9957 33H22.0002C28.063 33 32.9976 28.0671 33 22.004C33.0011 19.0658 31.8581 16.3032 29.7813 14.2247C27.7045 12.1462 24.9426 11.001 22.0045 11C15.937 11 11.0024 15.9324 11 21.9951C10.9991 24.0728 11.5807 26.0963 12.6818 27.847L12.9434 28.263L11.8321 32.3207L15.9954 31.229ZM28.8257 25.3395C28.7577 25.2172 28.5984 25.1342 28.3624 25.0114L28.362 25.0112C28.3049 24.9814 28.2433 24.9494 28.1774 24.9139C27.8391 24.7315 26.1759 23.85 25.8657 23.7283C25.5557 23.6067 25.33 23.546 25.1045 23.9107C24.8791 24.2754 24.2307 25.0963 24.0334 25.3395C23.836 25.5826 23.6387 25.6132 23.3005 25.4307C23.2452 25.4009 23.1699 25.3657 23.0769 25.3223C22.6006 25.0997 21.661 24.6607 20.5799 23.622C19.5742 22.6557 18.8952 21.4625 18.6979 21.0976C18.5006 20.7328 18.6769 20.5357 18.8462 20.354C18.9476 20.2452 19.0639 20.0925 19.1803 19.9399C19.2387 19.8632 19.2972 19.7866 19.3537 19.7155C19.4974 19.5347 19.5597 19.3977 19.6444 19.2114C19.6594 19.1786 19.675 19.1441 19.692 19.1076C19.8047 18.8643 19.7484 18.6516 19.6638 18.4692C19.6072 18.3472 19.2856 17.5038 18.9945 16.7405L18.9944 16.7403C18.8505 16.3628 18.714 16.0049 18.6207 15.7634C18.3783 15.1361 18.1325 15.1377 17.9353 15.1389C17.9092 15.1391 17.8839 15.1392 17.8596 15.1379C17.6625 15.1272 17.4367 15.125 17.2112 15.125C16.9857 15.125 16.6191 15.2162 16.309 15.581C16.2892 15.6044 16.267 15.6299 16.2428 15.6577C15.8905 16.0627 15.125 16.9425 15.125 18.621C15.125 20.4054 16.3246 22.1294 16.5036 22.3867L16.5064 22.3907C16.5174 22.4066 16.5373 22.4373 16.5657 22.4811C16.9708 23.1069 19.114 26.4179 22.2856 27.8931C23.0927 28.2685 23.7228 28.4927 24.2142 28.6607C25.0246 28.9381 25.7621 28.8989 26.3449 28.8051C26.995 28.7005 28.3465 27.9236 28.6285 27.0724C28.9103 26.2211 28.9103 25.4915 28.8257 25.3395Z" fill="url(#paint0_linear)"/>
<defs>
<linearGradient id="paint0_linear" x1="22" y1="0" x2="22" y2="44" gradientUnits="userSpaceOnUse">
<stop stop-color="#23E26A"/>
<stop offset="1" stop-color="#0DB44B"/>
</linearGradient>
</defs>
</svg>