<svg width="28" height="28" viewBox="0 0 28 28" fill="none" xmlns="http://www.w3.org/2000/svg">
<path fill-rule="evenodd" clip-rule="evenodd" d="M21.1654 5.42295C22.4587 6.63167 23.1854 8.27107 23.1854 9.98047C23.1854 11.6899 22.4587 13.3293 21.1654 14.538C19.872 15.7467 18.1178 16.4258 16.2887 16.4258H9.85183L4.79428 21.1523V16.0391C3.27386 15.5235 1.99571 14.5249 1.18326 13.2179C0.370796 11.9109 0.0757247 10.3785 0.349618 8.88883C0.623507 7.3991 1.44895 6.04671 2.68162 5.0681C3.9143 4.08948 5.4758 3.54689 7.09317 3.53516H16.2887C18.1178 3.53516 19.872 4.21422 21.1654 5.42295ZM21.0794 16.2806C22.5008 15.4026 23.3273 14.1554 23.9999 12.6924C25.0233 13.0105 26.2002 13.6259 26.8226 14.449C27.4451 15.272 27.7698 16.2596 27.7493 17.2673C27.7287 18.275 27.364 19.2502 26.7085 20.0504C26.0529 20.8508 25.1407 21.4343 24.1051 21.7157V25.7978L19.9212 21.9306H17.2085C15.9511 21.9247 14.7411 21.4814 13.8145 20.687C12.8879 19.8925 12.3112 18.804 12.1969 17.6337H16.2889C17.9928 17.6289 19.6579 17.1585 21.0794 16.2806Z" fill="url(#paint0_linear)"/>
<defs>
<linearGradient id="paint0_linear" x1="14.0001" y1="3.53516" x2="14.0001" y2="25.7978" gradientUnits="userSpaceOnUse">
<stop stop-color="#08CA60"/>
<stop offset="1" stop-color="#007E39"/>
</linearGradient>
</defs>
</svg>
