<svg width="28" height="28" viewBox="0 0 28 28" fill="none" xmlns="http://www.w3.org/2000/svg">
<path fill-rule="evenodd" clip-rule="evenodd" d="M3.18164 4.01461V22.613C3.18164 23.6252 3.98216 24.4458 4.96966 24.4458H15.8257C15.4063 23.5294 15.1719 22.5062 15.1719 21.427C15.1719 17.8075 17.8081 14.8192 21.2196 14.3696V6.71003L16.8022 2.18173H4.96966C3.98216 2.18173 3.18164 3.00234 3.18164 4.01461ZM15.1719 11.1844H6.23179V13.3407H15.1719V11.1844ZM6.23179 15.2814H12.2269V17.4378H6.23179V15.2814ZM15.2245 3.09817V8.21946H20.2204L15.2245 3.09817ZM25.4793 19.6626L23.0985 22.1032V16.4135H21.2053V22.1032L18.8245 19.6626L17.4858 21.0349L22.1519 25.8181L26.818 21.0349L25.4793 19.6626Z" fill="url(#paint0_linear)"/>
<defs>
<linearGradient id="paint0_linear" x1="14.9998" y1="2.18173" x2="14.9998" y2="25.8181" gradientUnits="userSpaceOnUse">
<stop stop-color="#5930FF"/>
<stop offset="0.0001" stop-color="#585FEC"/>
<stop offset="1" stop-color="#2A32E1"/>
</linearGradient>
</defs>
</svg>
