<svg width="28" height="28" viewBox="0 0 28 28" fill="none" xmlns="http://www.w3.org/2000/svg">
<path fill-rule="evenodd" clip-rule="evenodd" d="M26 13C26 19.6274 20.6274 25 14 25C7.37258 25 2 19.6274 2 13C2 6.37258 7.37258 1 14 1C20.6274 1 26 6.37258 26 13ZM14.0314 20.3711H14.0283C12.7783 20.3707 11.5501 20.0586 10.4592 19.4664L6.5 20.5L7.55956 16.6484C6.90597 15.5211 6.56206 14.2424 6.56262 12.9324C6.56426 8.83422 9.91469 5.5 14.0313 5.5C16.0293 5.50086 17.9045 6.27493 19.3146 7.6799C20.7246 9.0848 21.5008 10.9523 21.5 12.9383C21.4983 17.0356 18.1492 20.3694 14.0314 20.3711ZM10.7248 18.034L10.9438 18.164C11.8651 18.7104 12.921 18.9996 13.9977 19H14.0001C17.3071 19 19.9987 16.3093 20 13.0022C20.0006 11.3995 19.3771 9.89264 18.2443 8.75892C17.1115 7.62521 15.6051 7.00056 14.0025 7C10.6929 7 8.00131 9.69039 8 12.9973C7.99954 14.1306 8.31675 15.2343 8.91735 16.1892L9.06001 16.4162L8.45389 18.6295L10.7248 18.034ZM17.7231 14.8216C17.686 14.7548 17.5991 14.7096 17.4704 14.6426C17.4392 14.6263 17.4055 14.6088 17.3695 14.5894C17.185 14.4899 16.2777 14.0091 16.1086 13.9427C15.9395 13.8764 15.8164 13.8433 15.6934 14.0422C15.5704 14.2411 15.2168 14.6889 15.1091 14.8216C15.0015 14.9542 14.8938 14.9708 14.7094 14.8713C14.6792 14.8551 14.6381 14.8359 14.5874 14.8122L14.5874 14.8121C14.3276 14.6908 13.8151 14.4513 13.2254 13.8847C12.6768 13.3577 12.3065 12.7068 12.1989 12.5078C12.0912 12.3088 12.1874 12.2013 12.2798 12.1022C12.335 12.0428 12.3985 11.9596 12.462 11.8763L12.462 11.8762C12.4939 11.8345 12.5257 11.7927 12.5566 11.7539C12.635 11.6553 12.6689 11.5806 12.7151 11.479L12.7151 11.479C12.7233 11.461 12.7318 11.4422 12.7411 11.4224C12.8026 11.2896 12.7718 11.1736 12.7257 11.0741C12.6948 11.0075 12.5194 10.5476 12.3607 10.1312L12.3606 10.131C12.2821 9.92514 12.2076 9.72993 12.1568 9.59824C12.0245 9.25606 11.8904 9.2569 11.7829 9.25758H11.7829C11.7686 9.25767 11.7548 9.25776 11.7416 9.25704C11.6341 9.25122 11.5109 9.25 11.3879 9.25C11.2649 9.25 11.065 9.29975 10.8958 9.49875C10.885 9.51145 10.873 9.52531 10.8599 9.54037L10.8597 9.54056C10.6675 9.76145 10.25 10.2414 10.25 11.1569C10.25 12.1302 10.9043 13.0706 11.002 13.211L11.0035 13.2131C11.0095 13.2218 11.0203 13.2385 11.0358 13.2624L11.0358 13.2624C11.2568 13.6038 12.4258 15.4098 14.1558 16.2144C14.596 16.4192 14.9397 16.5415 15.2077 16.6331C15.6498 16.7844 16.0521 16.7631 16.37 16.7119C16.7245 16.6548 17.4617 16.2311 17.6156 15.7668C17.7693 15.3024 17.7693 14.9044 17.7231 14.8216Z" fill="url(#paint0_linear)"/>
<defs>
<linearGradient id="paint0_linear" x1="14" y1="1" x2="14" y2="25" gradientUnits="userSpaceOnUse">
<stop stop-color="#23E26A"/>
<stop offset="1" stop-color="#0DB44B"/>
</linearGradient>
</defs>
</svg>
